<?xml version="1.0" encoding="utf-8"?>
<svg version="1.1" xmlns:svgjs="http://svgjs.com/svgjs"
   xmlns="http://www.w3.org/2000/svg" xmlns:xlink="http://www.w3.org/1999/xlink" x="0px" y="0px" viewBox="0 0 1000 1000"
   style="enable-background:new 0 0 1000 1000;" xml:space="preserve">
<style type="text/css">
  .st0{fill:#99C24D;}
  .st1{fill:#2F2D2E;}
</style>
<g id="light-icon">
  <path class="st0" d="M500,0L500,0c276.1,0,500,223.9,500,500l0,0c0,276.1-223.9,500-500,500l0,0C223.9,1000,0,776.1,0,500l0,0
    C0,223.9,223.9,0,500,0z"/>
  <g transform="matrix(4.848484848484849,0,0,4.848484848484849,99.34727915399003,118.7469288074609)">
    <path class="st1" d="M97.1,81.3c-2.1,0.4-3.8,1-5.3,2c-4.2,3-7,7-9.3,11.4c-4,7.7-6.9,15.8-9.1,24.1l-1.3,4.8v1.2
      c0.8-0.6,1.6-1.2,2.2-1.9l13-14.4l12.9-13.8c1-1,1.8-2,2.6-3.3c2.2-3.5,4.8-6.6,9-8c0.2-0.1,0.4-0.5,0.4-0.7
      c0.3-4.3,3.9-7.7,8.2-7.8c2.3-0.1,4,1.1,5.4,2.7c1.4,1.5,2.7,3,2.7,5.5c3.2-1.4,6.2-2.4,9-3.9c3-1.5,6-3.4,8.9-5.1
      c0.3-0.2,1-0.3,1.3,0c2,1.6,3.3,3.7,4,6.1c0.2,0.4,0,1.1-0.4,1.5c-4.8,5.6-7.5,12.6-7.8,19.9c0,0,0.1,0.1,0,0c2.4,0,4.6-0.2,6.7,0
      c2.7,0.2,4.9,1.3,6.7,3.3c1.5,1.7,1.6,3.7,1.4,5.8c0,0.5-0.2,1-1,0.8c-3.7-1.3-7.4-1-11.1-0.6c-2.5,0.2-2.5,0.2-2.4,2.7
      c0.2,5.5-0.2,10.9-2.2,16c-2.5,6.2-7.2,10.1-13.3,12.6c-7,2.9-13,1-18.4-4c-1.5-1.4-3-3-4.1-4.7c-1.6-2.8-1-5.8,0.3-8.5
      c2-3.6,4.7-6.7,7.9-9.3c4.2-4,9.3-6.5,14.5-8.7c2.7-1.2,5.5-2.2,8.2-3.2c0.7-0.2,1-0.5,1-1.2c0-3.5,0-7,0.2-10.5
      c0-1.5,0.4-3,0.7-4.7c-1.8,0.7-3.4,1.5-5.2,2c-2,0.8-4.2,1.3-6.4,1.8c-0.7,0.2-1.1,0.5-1.4,1.2c-4,7.8-8.7,15.2-15.3,21.2
      c-1,1-2.4,2-3.6,2.8c-1.1,0.7-2.4,0.8-3.4,0c-1.6-1-3.1-2.3-4.5-3.6c-1.5-1.7-1.4-3.9-1.3-6l0.3-2.7l-1.2,1.5L80.2,126
      c-1.5,1.8-3.3,3.4-5,5c-1.5,1.3-3.2,1.4-4.9,0.3l-0.6-0.3c-4.6-2.8-5.7-5.3-4.8-11.3c0.1-1.1,0.3-2.3,0.3-3.5l-3.7,6.7l-6.8,12.3
      c-0.5,0.9-1.1,1.7-1.8,2.5c-0.6,0.7-1.5,1-2.3,0.4c-1.5-1-3-2.1-4.2-3.5c-0.7-0.7-1-2.1-0.9-3.2c0.2-4.1,0.4-8.3,1-12.4
      s1.6-8.1,2.5-12.2v-1l-3.1,4.4l-9.3,11.7l-1.2,1.2c-2,1.9-2.9,2-5.2,0.6l-0.7-0.5c-3-1.7-4-4.2-3.3-7.6l0.2-2.5l-1.3,2l-9.8,15
      c-0.8,1.1-1.8,2.1-2.8,3c-1.2,1.1-2,1.2-3.4,0.2c-1.2-0.9-2.3-1.9-3.4-3c-2.3-2.1-1.9-5-1.5-7.7c1.2-8.7,4.5-16.8,7.8-24.8L21,76
      l0.4-0.8l-5,0.8c-3.4,0.6-6.9,0.7-10.3,0.4c-3-0.4-5-2-5.9-4.8c-0.4-1.2-0.3-1.5,1-1.7L15,67.2l9.8-2.3c0.7-0.2,1-0.4,1.2-1.1
      l2.3-8.4l0.1-0.8v-1.1c0.5,0.1,1,0.1,1.3,0.3c2.7,2,4.7,4.4,4.7,8v0.7l8.4-2c7.2-1.5,14.5-3.1,22-3.2c4,0,8,0.4,11.7,2.3
      c1.5,0.8,2.8,2,4,3c0.6,0.6,1,1.4,1.5,2.4c-0.6,0-1,0.2-1.4,0.1c-6.7-1.5-13.7-1.4-20.4,0.3c-7.4,1.6-14.7,3.8-22,5.7l-5.3,1.5
      c-0.4,0.1-1,0.5-1.1,1c-6.2,15-12.2,30-18.2,45c-0.3,0.7-0.5,1.5-0.5,2.3l1-1.2c5.1-7.4,10.1-15,15.5-22.3
      c3.6-4.7,7.5-9.1,11.4-13.6c1.5-1.7,3.6-3,5.9-3.6c1.9-0.6,3.8-0.4,5.4,1c1.4,1,2.7,2.3,4,3.5l1.4-1.4c2-2,4.5-1.9,6.5,0
      c0.6,0.7,1,1.4,0.2,2.4c-3,3.6-4.5,8-5.8,12.5c-2.8,9.2-4.8,18.6-6.1,28.1l1-1.5c5-8.5,10.1-16.9,15.3-25.3l8-12.5
      c3.3-5.1,7.7-9,13.6-10.7c4.7-1.4,10.2,1.9,11,6.4c0.9,4.6-1.7,9.6-5.9,11.2c-1.7,0.6-2.2,0.5-3.4-0.9l-0.7-0.9
      c-1.1-1.7-1-1.8,0.5-3c2-1.5,3.5-3.3,4.6-5.5C96.8,83,96.9,82.3,97.1,81.3 M137.2,111.7l-2.2,0.6c-6.9,2-13,5.3-17.7,10.7
      c-1.8,2-3.5,4.2-4.3,6.8c-0.6,2-0.8,4-0.1,6.1C121.9,135.6,135.9,126.9,137.2,111.7 M121.2,91.5c-2-0.3-3.8-1.3-5.2-2.7
      c-0.2-0.1-0.8,0-1,0.1c-1.3,1.4-2.7,2.7-3.8,4.2c-2.4,3.6-4.2,7.5-5.4,11.6c-0.7,2.1-1.2,4.3-1.8,6.4l0.3,0.2
      C111.8,106.3,116.3,98.9,121.2,91.5 M33.3,116l1.9-2.3l16-22c1.4-1.8,1.2-3.7,1.4-6l-2.1,0.7c-2.3,1-4,2.8-5.6,4.6
      c-3,3.7-5.2,8-7.2,12.2C35.8,107.2,34.3,111.5,33.3,116 M118.2,85.3c1,0,2,0,3-0.2c3.9-0.6,3.4-0.2,4-4.2v-0.4
      c0.1-0.8-0.2-1-1-0.9C121.7,79.8,118.6,82.6,118.2,85.3"/>
    <path class="st1" d="M21.4,147.9c1.2,1.5,3,1.8,4.7,2.3c6.1,1.4,12.3,1.4,18.4,0c10.5-2,20.7-5.4,30.8-8.9c4.7-1.6,9.5-3,14.3-4
      c4.7-1.1,9.4-0.7,14,0.8l0.8,0.2c1,0.3,1.4,0.9,1,2l-3.5,8.8c-0.4,1-0.6,1.2-1.5,0.6c-2.2-1.4-4.7-2.3-7.3-2.5c-8-0.8-15.5,1-23,3
      c-6.9,2-13.8,3.8-20.7,5.4c-4,0.9-8.2,1.5-12.3,1.7c-4,0.2-8-0.4-11.7-2.5c-1.7-0.9-3.1-2.4-4-4.2
      C20.9,149.7,20.5,148.8,21.4,147.9 M124.8,20.4l10.7,0.7c3.1,0.4,5.9,1.7,8.3,3.9c1.5,1.4,3.3,2.6,5.1,3.7
      c5.3,3.1,9.8,7.3,13.3,12.3c1.8,1.1,2.5,3,2.9,5c0.5,2.4,0.2,4.8-0.8,7c-0.2,0.2-0.6,0.5-1,0.6l-13.6,3.7L98,71.3l-9.6,2.5
      C87.7,74,87,74.2,87,73.1V73c-1.6-1-1.2-2.6-1.3-4c-0.2-2-0.2-3.7,0.2-5.5c0.2-0.9-0.2-2-0.5-2.8c-0.6-1.4-0.6-2.6,0.4-3.8
      l0.6-0.8c1.3-2,1.2-2.6-0.4-4.3c-1.8-1.8-1.5-2.8,0-4c0.1-0.1,0.3-0.5,0.3-0.8c-0.5-2.5,0.2-4.8,2-6.5C92.5,36.2,97,32,101.4,28
      c2.7-2.5,6-3.7,9.6-4.6c3.8-1,7.7-1.9,11.6-2.7c0.7-0.2,1.5-0.2,2-0.2 M88,72.5l75-20.2l-0.6-0.6c-5.6-5.9-12.4-10.5-19.9-13.5
      c-7.7-3-15.8-4.2-24-2.6C99.8,39.2,89.1,55,88,72.5 M86.8,72L86.8,72l0.7-4.8c1.2-7.9,4.7-15.3,10-21.2
      c8.7-9.8,21.9-14.2,34.8-11.7c10.5,1.7,20.3,6.6,28,14l3.5,3.4c1-1.4,0.8-2.8,0.9-4.2c0-4.2-2.8-6.6-6.7-6.1
      c-2.7,0.3-4.8-0.5-6.4-2.8c-0.6-0.7-1.6-1.4-2.4-1.5c-1.8-0.1-2.7-1-3.4-2.5c-1.3-2.5-3.4-4.6-6-5.7c-3.8-1.9-7.6-1.1-10.8,2.4
      l3.7-0.5c1.6-0.2,3.2-0.1,4.7,0.8c1.4,0.9,3,1.5,4.6,2.2c0.6,0.3,1.4,0.5,2,1c0.4,0.2,0.6,0.8,1,1.2c-1.8-0.4-3.4-0.9-4.9-1.4
      c-0.7-0.2-1.3-0.6-1.8-1c-1.8-1.6-3.8-1.8-6-1.4c-1.1,0.2-2.3,0.1-3.5,0.2h-2l-9.7,0.3h-0.2l-3.5,0.6c-1,0.3-2,0.6-2.8,1
      c-1.1,0.4-2.3,0.8-3.2,1.5c-1.4,1-2.6,2.2-3.9,3.3c-1.8,1.6-3.5,3.4-5.9,4.2c-1.2,0.4-2,1.2-2.6,2.3c-0.5,0.7-1.3,1.2-2.1,1.7
      c-0.5,0.3-1.1,0-1.4-0.8c1.5,0,2.2-1,2.8-2c0.3-0.7,0.9-1.4,1.5-1.7c3.3-1.5,6.2-3.6,8.6-6.3c2.9-2.9,6.7-3.6,10.3-5h1.3l3.1-0.1
      l4.2-0.1h2.9v-0.4c-0.6-0.3-1-0.8-1.7-1c-0.9-0.3-2-0.9-2.6-0.6c-1.5,0.7-2.8,0.5-4.3,0.3c-5.1-0.5-10.3,0.4-15,2.6
      c-1.8,0.8-2.6,2-2.3,4c0.3,2.3-0.1,2.6-2.4,3.3l-5.1,1.7c-1,0.4-1.3,1-1,2c0.5,1.5,0.3,2-1,2.9c-1.5,1-2.9,1.9-4.3,3
      c-1,0.8-1,1.3,0,2.3c2,2.1,2.1,3.4,0.5,6l-0.2,0.3c-1,1-1.2,2.4-0.5,3.6c0.7,1.3,0.7,2.6,0.4,4c-0.2,0.8-0.3,1.6-0.3,2.5l0.3,3.1
      v1 M87,46.9l3.3-2c1-0.5,1.3-1.2,0.8-2.3s0-2,1-2.3l5.4-2c2-0.6,2.4-0.7,2.1-2.9c-0.2-2,0.6-3.3,2.4-4.1
      c5.2-2.6,11.1-3.5,16.8-2.7c0.5,0.1,1.1,0.2,1.5,0c1.7-1,3.2-0.4,4.7,0.5c2.4,1.4,3,1.4,5.1-0.4c2.5-2.1,6-2.6,9-1.3
      c3.1,1.1,5.5,3.4,7.1,6.4c0.5,0.7,1.2,1.8,2,1.8c1.8,0.2,3.4,1.3,4.3,2.8c1,1.2,2.3,1.8,3.8,1.8h4.2c0,0,0-0.2-0.2-0.3
      c-3-3.9-6.7-7.2-10.9-9.8c-2.1-1.1-4.1-2.6-5.8-4.2c-2-2-4.6-3.1-7.3-3.5l-8-0.7c-2,0-4-0.3-5.9,0c-3.4,0.6-6.8,1.5-10.2,2.4
      c-3.4,0.9-6.7,2.2-9.6,4.4l-0.2,0.2l0.6,0.8l-1,0.8l-0.5-0.9l-0.3,0.2l-12.3,12C87.6,43,87.3,44.8,87,47"/>
    <path class="st1" d="M21.4,145.9c4.2,1.8,8.4,2,12.6,2c9.3,0.2,18.1-2,26.9-4.7c8-2.4,16-5,24-7.3c4.7-1.5,9.5-2,14.5-1
      c1,0,2,0.4,2.9,0.8c0.2,0,0.4,0.4,0.5,0.8c-6.2-1.6-12.8-1.3-18.8,0.8c-9,2.7-18,5.7-27.1,8.4c-7.2,2.3-14.7,3.5-22.3,3.5
      c-3.6,0-7.3-0.4-10.8-1.3C22.8,147.6,21.8,147.2,21.4,145.9 M16,80c1.2,0.5,1,1.3,0.7,2.1c-1.6,3.3-3.1,6.7-4.8,10
      c-4.7,9-7.8,18.6-9.5,28.6c-0.4,3.6-0.3,7.3,0.5,10.8l0.3,0.9c-1,0.2-1.3-0.4-1.6-1.2c-1.5-5.6-1.5-11.6,0.2-17.2
      c2.3-9.4,6-18.3,10.7-26.8L16,80 M81.7,79.1c-5.4,5.3-9.9,11.4-13.3,18.2c-2.5,4.7-5.4,9.1-8.2,13.7l-2.3,4.1
      c-0.9-0.1-0.7-0.7-0.5-1.3c1-2,1.9-4.1,3-6c3.4-6.1,7-12.1,10.6-18c2.4-4,5.3-7.7,9-10.7C80.5,78.7,81,77.9,81.7,79.1
       M103.4,130.9c-1-0.5-1-1.3-1-2c0.1-2.9,1.3-5.3,2.9-7.5c4.4-6.1,9.8-11,16.5-14.4c2.1-1.2,4.3-2.2,6.5-3.2
      c0.7-0.3,1.3-0.5,1.7,0.5l-7,3.6c-6.5,3.4-12.2,8.3-16.4,14.3c-1.7,2.4-3,5-3,8L103.4,130.9 M40.2,59.3c-0.7-1-0.2-1.2,0.5-1.4
      c4.5-1.1,9-2.4,13.5-3.3c6.5-1.2,13-1.3,19.4,0.4c0.5,0.1,1,0.2,1.3,0.4s0.6,0.6,0.8,1l-0.2,0.2l-3-0.6c-7.4-1.3-15-1-22.2,1
      L40.2,59.3 M25.4,101.5c-1-0.3-0.6-1-0.3-1.5c2.2-3.4,4.2-7,6.6-10.2c2.5-3.2,5.4-6.2,8.3-9.1c1.1-1.2,2.7-2,4.1-2.8
      c0.2-0.1,0.6,0,1,0.2c-0.2,0.2-0.2,0.6-0.5,0.8c-4.9,3.3-8.5,7.8-12,12.5c-2.1,2.7-4,5.5-6,8.3L25.4,101.5 M95.4,97.4l-0.5,0.7
      L80.3,116l-1,1c-0.4,0.4-0.8,0.8-1.2,0.2c-0.1-0.3-0.1-1,0.1-1.2l4.5-5.2l10.5-12.6c0.3-0.5,0.7-0.8,1.1-1.2
      c0.2-0.1,0.5-0.2,0.6-0.1C95.1,96.9,95.2,97.2,95.4,97.4 M3.6,65.4c2.7-0.5,5.5-0.9,8.2-1.6c2.5-0.6,5-1.6,7.4-2.5l2.2-0.8
      c2.3-0.5,3.5-2,4-4c0.3-1,0.4-1.8,0.9-2.8l0.3,0.9c0.1,3.3-1.2,6.8-5,7.3c-1.8,0.3-3.5,1.5-5.2,2.1c-3.7,1.4-7.7,2.2-11.7,2.2
      c-0.4,0-0.9-0.3-1.3-0.5L3.6,65.4 M45.1,135.6c-1.2,0-1.8-1-1.9-2c-0.3-2.4-0.7-4.8-0.5-7.2c0.1-3.2,0.8-6.5,1.3-9.8
      c0-0.5,0.3-1,0.4-1.6c1,0.2,1.1,0.7,1,1.5l-1,9.7c-0.4,3.1-0.2,6.2,0.8,9.2L45.1,135.6 M117.8,73.7c-2.6,1.6-4.3,4-5.6,6.8
      c-0.3,0.7-0.8,1.2-1.4,1.7l-6.8,5.4c-0.6-0.3-0.2-0.8,0.2-1.2l5.2-5c0.7-0.6,1.3-1.3,1.7-2.1c1-2.3,2.4-4.3,4.3-5.8
      C116.6,72.6,117.1,72.6,117.8,73.7 M144.6,73.6l-0.3,0.3l-10.4,5.7c-0.7,0.3-1.2,0.1-1.5-0.8l2.1-1l8.8-4.7
      C143.9,72.8,144.3,72.7,144.6,73.6 M141,20v-1.2l1.6-6.7c0.5-2,1.7-3.3,3.6-4c0.6-0.4,1.4-0.6,2,0.2c-0.7,0.3-1.3,0.5-1.8,0.9
      c-1.5,1-2.6,2.6-3,4.4c-0.5,2.2-1.2,4.3-1.8,6.5h-0.5 M164.7,19.5c-1.4,0-2.2,1-3,1.8l-6.2,6c-0.4,0.4-0.9,1.1-1.3,0.4L161,20
      c0.6-0.6,1.3-1,2-1.4c0.7-0.3,1.3,0,1.7,0.8 M125.6,18.5c0-0.6-0.1-1.1,0-1.6l1.4-4.4c1-2.7,0.4-5.4,0-8.1
      c-0.3-1.9-0.2-3.1,0.8-4.4c0.1,0.4,0.4,0.8,0.3,0.9c-1,1.4-0.6,3-0.3,4.4c0.8,3.5,0.7,6.8-0.8,10.1c-0.5,1-0.7,2-1,3h-0.4
       M103.8,24.1c-0.2-0.3-0.6-0.5-0.7-0.9c-0.5-1.2-1-2.4-1.2-3.6c-0.3-2.1-1-4.1-2-6c-0.7-1.2-1-2.6-1.1-4c-0.1-0.5,0.3-1.2,0.7-1.7
      c0.1-0.2,0.7-0.2,1.1-0.1c-1.5,2-1.1,3.9,0,5.7c1.3,2.3,2.2,4.7,2.5,7.3c0.1,1.1,0.6,2.1,0.9,3.2L103.8,24.1 M85.2,18.4
      c-1.4,2.4-1,4.7,1,6.8l6.2,6.5l0.5,0.7v0.3l-1-0.6c-2-2.2-4.1-4.3-6.3-6.4c-1.5-1.5-2.7-3-2.3-5.4c0-0.7,0.3-1.3,0.7-2
      c0.2-0.2,0.7-0.2,1-0.3L85.2,18.4 M114.8,20.4c-0.2-0.3-0.5-0.7-0.5-1c-0.2-0.7-0.2-1.4-0.2-2c0-2.5-0.6-4.7-1.7-6.8
      c-1-1.8-1.9-3.6-1.7-5.6c0-0.7,0.3-1.4,0.6-2c0-0.2,0.4-0.2,0.7-0.3c0,0.3,0.2,0.6,0,0.8c-0.8,1.5-0.6,3-0.1,4.4
      c0.3,1,0.8,2,1.3,3c1.2,2.2,1.9,4.5,1.7,7v2.4L114.8,20.4 M68,133.7c-3.4-0.2-6.6-6-5.2-11c0.2,0.4,0.5,0.8,0.6,1.3l1,4.8
      c0.4,1.7,1.2,3.2,2.9,4l0.5,0.5L68,133.7 M135.2,91c0.3,0.7,0.8,1.1,0.8,1.6l0.2,9.9C134.7,101.7,133.9,94.5,135.2,91 M156.6,61.3
      c-0.4,1-0.7,1.8-1.2,2.6c-0.3,0.3-1,0.3-1.5,0.5v-1.2c0-0.8,0.2-1.5,0.6-2.2c0.2-0.5,0.8-0.8,1.2-1.2L156.6,61.3 M160,73
      c0.1,0.6,0.4,1.2,0.4,1.8v2.8c-0.1,0.3-0.5,0.6-0.8,0.8c-0.2-0.2-0.7-0.5-0.7-0.8c0-1.5,0.3-3,0.4-4.6L160,73 M93.8,83.2
      c0.9,0.5,1,1,0.4,1.6c-0.8,0.9-1.6,1.8-2.4,2.7l-0.7,0.1c0-0.3-0.1-0.7,0-0.8L93.8,83.2 M152.8,100.5l-5.1-1
      c-0.3-0.1-0.4-0.5-0.7-0.8l0.6-0.4l4.9,1.7L152.8,100.5 M26.5,123.4c-2-1-2.7-3-2-4.9c0.8,0.2,1.1,0.5,1,1.3c0,0.6,0,1.2,0.2,1.7
      C25.8,122.1,26.1,122.6,26.5,123.4 M98.4,114.7c-1.5-1.2-3-2.5-3-4.6l0.3-0.3L98.4,114.7 M132.6,69.1c-1.4-0.7-1.6-1.5-0.6-2.8
      C132.8,66.9,133,67.3,132.6,69.1 M142.4,71c-0.9-0.9-1.3-1.8-1.2-3C142.5,68.4,143,69.7,142.4,71 M132.9,13c1,1.5-0.7,2.6,0,4
      C131.8,16,131.8,14.6,132.9,13 M147.6,20l-2.2,2c-0.6-0.6-0.2-1,0.2-1.4c0.6-0.4,0.9-1.5,2-0.7 M97,25c-0.9-1-1.7-2.2-2.4-3.2
      l0.4-0.3l2.3,3.2L97,25 M162.3,30.2l-1.4,0.7c-0.2,0-0.5,0-0.6-0.2v-0.5C160.8,29.4,161.6,29.4,162.3,30.2 M162.8,59.6
      c1.1,0.5,0.8,1.3,0.5,2.3C162.2,61.2,162.8,60.3,162.8,59.6 M118.5,18l-0.2-2.1c1,0.4,1,0.4,0.6,2.1H118.5 M133.3,115
      c1,0.6,0.8,1.3,0.6,2c-1,4.6-3.8,8.6-7.8,11.2l-5.4,3.4c-0.8,0.5-1.3,0.2-1.6-0.5c3-2.2,6-4.3,8.8-6.6
      C130.8,122.1,131.9,118.5,133.3,115 M117.3,92.5c0,0.5,0.2,1,0,1.3c-2.2,4.4-5,8.4-8.2,12.1l-0.5,0.4c-0.1-0.5-0.3-1-0.1-1.2
      l7.7-12l0.6-0.6L117.3,92.5 M40.8,103.6c-0.9-0.4-0.7-0.9-0.3-1.4l6.9-10c0.9-1.2,1.6-2.5,2.4-3.8h0.4c0,0.6,0.2,1.3,0,1.8
      c-1.2,2.1-2.4,4.1-3.8,6L40.8,103.6 M105,48.1l-1.4,1.7c-0.1-0.4-0.4-0.8-0.3-1.1c0.2-0.4,0.6-0.8,1-1L105,48.1 M115.3,55.1
      l-1.3,1.4c-0.7-0.7-0.6-1.1,0.7-2L115.3,55.1 M126.4,42.2l0.2-1.9l1.7,1L126.4,42.2 M137,40l-1.1,0.9l-0.6-1
      c0-0.2,0.4-0.6,0.5-0.5C136.2,39.4,136.5,39.7,137,40 M123.1,56l0.7,0.9l-0.9,0.7C122.2,56.9,122.2,56.9,123.1,56 M151,51.4h-1.4
      c0-0.3,0.1-0.7,0.3-0.7h1.2v0.7 M138.4,52.6l-1.2,1l0.1-1.6l1.2,0.2v0.4 M161.5,44.8c-1-0.6-2,1-3-0.4
      C160.2,43.1,160.8,43.2,161.5,44.8 M118.4,25.2l-4,0.7l-0.7-0.3l0.1-0.5c0.6-0.8,3.7-1,4.4-0.3L118.4,25.2 M112.2,26.7
      c-1.2-0.2-2.1,1.5-3.4,0.2C110.3,25.9,111.6,25.7,112.2,26.7 M129.5,23.4c1,1.6-0.5,1.6-0.9,2.2c-0.7-1.1,0.5-1.4,1-2.2
       M119.4,25.6c0.7,0,1.6-1.2,2.2,0.3C120.8,26.3,120,26.6,119.4,25.6"/>
  </g>
</g>
<g id="dark-icon">
  <path class="st1" d="M500,0L500,0c276.1,0,500,223.9,500,500l0,0c0,276.1-223.9,500-500,500l0,0C223.9,1000,0,776.1,0,500l0,0
    C0,223.9,223.9,0,500,0z"/>
  <g transform="matrix(4.848484848484849,0,0,4.848484848484849,99.34727915399003,118.7469288074609)">
    <path class="st0" d="M97.1,81.3c-2.1,0.4-3.8,1-5.3,2c-4.2,3-7,7-9.3,11.4c-4,7.7-6.9,15.8-9.1,24.1l-1.3,4.8v1.2
      c0.8-0.6,1.6-1.2,2.2-1.9l13-14.4l12.9-13.8c1-1,1.8-2,2.6-3.3c2.2-3.5,4.8-6.6,9-8c0.2-0.1,0.4-0.5,0.4-0.7
      c0.3-4.3,3.9-7.7,8.2-7.8c2.3-0.1,4,1.1,5.4,2.7c1.4,1.5,2.7,3,2.7,5.5c3.2-1.4,6.2-2.4,9-3.9c3-1.5,6-3.4,8.9-5.1
      c0.3-0.2,1-0.3,1.3,0c2,1.6,3.3,3.7,4,6.1c0.2,0.4,0,1.1-0.4,1.5c-4.8,5.6-7.5,12.6-7.8,19.9c0,0,0.1,0.1,0,0c2.4,0,4.6-0.2,6.7,0
      c2.7,0.2,4.9,1.3,6.7,3.3c1.5,1.7,1.6,3.7,1.4,5.8c0,0.5-0.2,1-1,0.8c-3.7-1.3-7.4-1-11.1-0.6c-2.5,0.2-2.5,0.2-2.4,2.7
      c0.2,5.5-0.2,10.9-2.2,16c-2.5,6.2-7.2,10.1-13.3,12.6c-7,2.9-13,1-18.4-4c-1.5-1.4-3-3-4.1-4.7c-1.6-2.8-1-5.8,0.3-8.5
      c2-3.6,4.7-6.7,7.9-9.3c4.2-4,9.3-6.5,14.5-8.7c2.7-1.2,5.5-2.2,8.2-3.2c0.7-0.2,1-0.5,1-1.2c0-3.5,0-7,0.2-10.5
      c0-1.5,0.4-3,0.7-4.7c-1.8,0.7-3.4,1.5-5.2,2c-2,0.8-4.2,1.3-6.4,1.8c-0.7,0.2-1.1,0.5-1.4,1.2c-4,7.8-8.7,15.2-15.3,21.2
      c-1,1-2.4,2-3.6,2.8c-1.1,0.7-2.4,0.8-3.4,0c-1.6-1-3.1-2.3-4.5-3.6c-1.5-1.7-1.4-3.9-1.3-6l0.3-2.7l-1.2,1.5L80.2,126
      c-1.5,1.8-3.3,3.4-5,5c-1.5,1.3-3.2,1.4-4.9,0.3l-0.6-0.3c-4.6-2.8-5.7-5.3-4.8-11.3c0.1-1.1,0.3-2.3,0.3-3.5l-3.7,6.7l-6.8,12.3
      c-0.5,0.9-1.1,1.7-1.8,2.5c-0.6,0.7-1.5,1-2.3,0.4c-1.5-1-3-2.1-4.2-3.5c-0.7-0.7-1-2.1-0.9-3.2c0.2-4.1,0.4-8.3,1-12.4
      s1.6-8.1,2.5-12.2v-1l-3.1,4.4l-9.3,11.7l-1.2,1.2c-2,1.9-2.9,2-5.2,0.6l-0.7-0.5c-3-1.7-4-4.2-3.3-7.6l0.2-2.5l-1.3,2l-9.8,15
      c-0.8,1.1-1.8,2.1-2.8,3c-1.2,1.1-2,1.2-3.4,0.2c-1.2-0.9-2.3-1.9-3.4-3c-2.3-2.1-1.9-5-1.5-7.7c1.2-8.7,4.5-16.8,7.8-24.8L21,76
      l0.4-0.8l-5,0.8c-3.4,0.6-6.9,0.7-10.3,0.4c-3-0.4-5-2-5.9-4.8c-0.4-1.2-0.3-1.5,1-1.7L15,67.2l9.8-2.3c0.7-0.2,1-0.4,1.2-1.1
      l2.3-8.4l0.1-0.8v-1.1c0.5,0.1,1,0.1,1.3,0.3c2.7,2,4.7,4.4,4.7,8v0.7l8.4-2c7.2-1.5,14.5-3.1,22-3.2c4,0,8,0.4,11.7,2.3
      c1.5,0.8,2.8,2,4,3c0.6,0.6,1,1.4,1.5,2.4c-0.6,0-1,0.2-1.4,0.1c-6.7-1.5-13.7-1.4-20.4,0.3c-7.4,1.6-14.7,3.8-22,5.7l-5.3,1.5
      c-0.4,0.1-1,0.5-1.1,1c-6.2,15-12.2,30-18.2,45c-0.3,0.7-0.5,1.5-0.5,2.3l1-1.2c5.1-7.4,10.1-15,15.5-22.3
      c3.6-4.7,7.5-9.1,11.4-13.6c1.5-1.7,3.6-3,5.9-3.6c1.9-0.6,3.8-0.4,5.4,1c1.4,1,2.7,2.3,4,3.5l1.4-1.4c2-2,4.5-1.9,6.5,0
      c0.6,0.7,1,1.4,0.2,2.4c-3,3.6-4.5,8-5.8,12.5c-2.8,9.2-4.8,18.6-6.1,28.1l1-1.5c5-8.5,10.1-16.9,15.3-25.3l8-12.5
      c3.3-5.1,7.7-9,13.6-10.7c4.7-1.4,10.2,1.9,11,6.4c0.9,4.6-1.7,9.6-5.9,11.2c-1.7,0.6-2.2,0.5-3.4-0.9l-0.7-0.9
      c-1.1-1.7-1-1.8,0.5-3c2-1.5,3.5-3.3,4.6-5.5C96.8,83,96.9,82.3,97.1,81.3 M137.2,111.7l-2.2,0.6c-6.9,2-13,5.3-17.7,10.7
      c-1.8,2-3.5,4.2-4.3,6.8c-0.6,2-0.8,4-0.1,6.1C121.9,135.6,135.9,126.9,137.2,111.7 M121.2,91.5c-2-0.3-3.8-1.3-5.2-2.7
      c-0.2-0.1-0.8,0-1,0.1c-1.3,1.4-2.7,2.7-3.8,4.2c-2.4,3.6-4.2,7.5-5.4,11.6c-0.7,2.1-1.2,4.3-1.8,6.4l0.3,0.2
      C111.8,106.3,116.3,98.9,121.2,91.5 M33.3,116l1.9-2.3l16-22c1.4-1.8,1.2-3.7,1.4-6l-2.1,0.7c-2.3,1-4,2.8-5.6,4.6
      c-3,3.7-5.2,8-7.2,12.2C35.8,107.2,34.3,111.5,33.3,116 M118.2,85.3c1,0,2,0,3-0.2c3.9-0.6,3.4-0.2,4-4.2v-0.4
      c0.1-0.8-0.2-1-1-0.9C121.7,79.8,118.6,82.6,118.2,85.3"/>
    <path class="st0" d="M21.4,147.9c1.2,1.5,3,1.8,4.7,2.3c6.1,1.4,12.3,1.4,18.4,0c10.5-2,20.7-5.4,30.8-8.9c4.7-1.6,9.5-3,14.3-4
      c4.7-1.1,9.4-0.7,14,0.8l0.8,0.2c1,0.3,1.4,0.9,1,2l-3.5,8.8c-0.4,1-0.6,1.2-1.5,0.6c-2.2-1.4-4.7-2.3-7.3-2.5c-8-0.8-15.5,1-23,3
      c-6.9,2-13.8,3.8-20.7,5.4c-4,0.9-8.2,1.5-12.3,1.7c-4,0.2-8-0.4-11.7-2.5c-1.7-0.9-3.1-2.4-4-4.2
      C20.9,149.7,20.5,148.8,21.4,147.9 M124.8,20.4l10.7,0.7c3.1,0.4,5.9,1.7,8.3,3.9c1.5,1.4,3.3,2.6,5.1,3.7
      c5.3,3.1,9.8,7.3,13.3,12.3c1.8,1.1,2.5,3,2.9,5c0.5,2.4,0.2,4.8-0.8,7c-0.2,0.2-0.6,0.5-1,0.6l-13.6,3.7L98,71.3l-9.6,2.5
      C87.7,74,87,74.2,87,73.1V73c-1.6-1-1.2-2.6-1.3-4c-0.2-2-0.2-3.7,0.2-5.5c0.2-0.9-0.2-2-0.5-2.8c-0.6-1.4-0.6-2.6,0.4-3.8
      l0.6-0.8c1.3-2,1.2-2.6-0.4-4.3c-1.8-1.8-1.5-2.8,0-4c0.1-0.1,0.3-0.5,0.3-0.8c-0.5-2.5,0.2-4.8,2-6.5C92.5,36.2,97,32,101.4,28
      c2.7-2.5,6-3.7,9.6-4.6c3.8-1,7.7-1.9,11.6-2.7c0.7-0.2,1.5-0.2,2-0.2 M88,72.5l75-20.2l-0.6-0.6c-5.6-5.9-12.4-10.5-19.9-13.5
      c-7.7-3-15.8-4.2-24-2.6C99.8,39.2,89.1,55,88,72.5 M86.8,72L86.8,72l0.7-4.8c1.2-7.9,4.7-15.3,10-21.2
      c8.7-9.8,21.9-14.2,34.8-11.7c10.5,1.7,20.3,6.6,28,14l3.5,3.4c1-1.4,0.8-2.8,0.9-4.2c0-4.2-2.8-6.6-6.7-6.1
      c-2.7,0.3-4.8-0.5-6.4-2.8c-0.6-0.7-1.6-1.4-2.4-1.5c-1.8-0.1-2.7-1-3.4-2.5c-1.3-2.5-3.4-4.6-6-5.7c-3.8-1.9-7.6-1.1-10.8,2.4
      l3.7-0.5c1.6-0.2,3.2-0.1,4.7,0.8c1.4,0.9,3,1.5,4.6,2.2c0.6,0.3,1.4,0.5,2,1c0.4,0.2,0.6,0.8,1,1.2c-1.8-0.4-3.4-0.9-4.9-1.4
      c-0.7-0.2-1.3-0.6-1.8-1c-1.8-1.6-3.8-1.8-6-1.4c-1.1,0.2-2.3,0.1-3.5,0.2h-2l-9.7,0.3h-0.2l-3.5,0.6c-1,0.3-2,0.6-2.8,1
      c-1.1,0.4-2.3,0.8-3.2,1.5c-1.4,1-2.6,2.2-3.9,3.3c-1.8,1.6-3.5,3.4-5.9,4.2c-1.2,0.4-2,1.2-2.6,2.3c-0.5,0.7-1.3,1.2-2.1,1.7
      c-0.5,0.3-1.1,0-1.4-0.8c1.5,0,2.2-1,2.8-2c0.3-0.7,0.9-1.4,1.5-1.7c3.3-1.5,6.2-3.6,8.6-6.3c2.9-2.9,6.7-3.6,10.3-5h1.3l3.1-0.1
      l4.2-0.1h2.9v-0.4c-0.6-0.3-1-0.8-1.7-1c-0.9-0.3-2-0.9-2.6-0.6c-1.5,0.7-2.8,0.5-4.3,0.3c-5.1-0.5-10.3,0.4-15,2.6
      c-1.8,0.8-2.6,2-2.3,4c0.3,2.3-0.1,2.6-2.4,3.3l-5.1,1.7c-1,0.4-1.3,1-1,2c0.5,1.5,0.3,2-1,2.9c-1.5,1-2.9,1.9-4.3,3
      c-1,0.8-1,1.3,0,2.3c2,2.1,2.1,3.4,0.5,6l-0.2,0.3c-1,1-1.2,2.4-0.5,3.6c0.7,1.3,0.7,2.6,0.4,4c-0.2,0.8-0.3,1.6-0.3,2.5l0.3,3.1
      v1 M87,46.9l3.3-2c1-0.5,1.3-1.2,0.8-2.3s0-2,1-2.3l5.4-2c2-0.6,2.4-0.7,2.1-2.9c-0.2-2,0.6-3.3,2.4-4.1
      c5.2-2.6,11.1-3.5,16.8-2.7c0.5,0.1,1.1,0.2,1.5,0c1.7-1,3.2-0.4,4.7,0.5c2.4,1.4,3,1.4,5.1-0.4c2.5-2.1,6-2.6,9-1.3
      c3.1,1.1,5.5,3.4,7.1,6.4c0.5,0.7,1.2,1.8,2,1.8c1.8,0.2,3.4,1.3,4.3,2.8c1,1.2,2.3,1.8,3.8,1.8h4.2c0,0,0-0.2-0.2-0.3
      c-3-3.9-6.7-7.2-10.9-9.8c-2.1-1.1-4.1-2.6-5.8-4.2c-2-2-4.6-3.1-7.3-3.5l-8-0.7c-2,0-4-0.3-5.9,0c-3.4,0.6-6.8,1.5-10.2,2.4
      c-3.4,0.9-6.7,2.2-9.6,4.4l-0.2,0.2l0.6,0.8l-1,0.8l-0.5-0.9l-0.3,0.2l-12.3,12C87.6,43,87.3,44.8,87,47"/>
    <path class="st0" d="M21.4,145.9c4.2,1.8,8.4,2,12.6,2c9.3,0.2,18.1-2,26.9-4.7c8-2.4,16-5,24-7.3c4.7-1.5,9.5-2,14.5-1
      c1,0,2,0.4,2.9,0.8c0.2,0,0.4,0.4,0.5,0.8c-6.2-1.6-12.8-1.3-18.8,0.8c-9,2.7-18,5.7-27.1,8.4c-7.2,2.3-14.7,3.5-22.3,3.5
      c-3.6,0-7.3-0.4-10.8-1.3C22.8,147.6,21.8,147.2,21.4,145.9 M16,80c1.2,0.5,1,1.3,0.7,2.1c-1.6,3.3-3.1,6.7-4.8,10
      c-4.7,9-7.8,18.6-9.5,28.6c-0.4,3.6-0.3,7.3,0.5,10.8l0.3,0.9c-1,0.2-1.3-0.4-1.6-1.2c-1.5-5.6-1.5-11.6,0.2-17.2
      c2.3-9.4,6-18.3,10.7-26.8L16,80 M81.7,79.1c-5.4,5.3-9.9,11.4-13.3,18.2c-2.5,4.7-5.4,9.1-8.2,13.7l-2.3,4.1
      c-0.9-0.1-0.7-0.7-0.5-1.3c1-2,1.9-4.1,3-6c3.4-6.1,7-12.1,10.6-18c2.4-4,5.3-7.7,9-10.7C80.5,78.7,81,77.9,81.7,79.1
       M103.4,130.9c-1-0.5-1-1.3-1-2c0.1-2.9,1.3-5.3,2.9-7.5c4.4-6.1,9.8-11,16.5-14.4c2.1-1.2,4.3-2.2,6.5-3.2
      c0.7-0.3,1.3-0.5,1.7,0.5l-7,3.6c-6.5,3.4-12.2,8.3-16.4,14.3c-1.7,2.4-3,5-3,8L103.4,130.9 M40.2,59.3c-0.7-1-0.2-1.2,0.5-1.4
      c4.5-1.1,9-2.4,13.5-3.3c6.5-1.2,13-1.3,19.4,0.4c0.5,0.1,1,0.2,1.3,0.4s0.6,0.6,0.8,1l-0.2,0.2l-3-0.6c-7.4-1.3-15-1-22.2,1
      L40.2,59.3 M25.4,101.5c-1-0.3-0.6-1-0.3-1.5c2.2-3.4,4.2-7,6.6-10.2c2.5-3.2,5.4-6.2,8.3-9.1c1.1-1.2,2.7-2,4.1-2.8
      c0.2-0.1,0.6,0,1,0.2c-0.2,0.2-0.2,0.6-0.5,0.8c-4.9,3.3-8.5,7.8-12,12.5c-2.1,2.7-4,5.5-6,8.3L25.4,101.5 M95.4,97.4l-0.5,0.7
      L80.3,116l-1,1c-0.4,0.4-0.8,0.8-1.2,0.2c-0.1-0.3-0.1-1,0.1-1.2l4.5-5.2l10.5-12.6c0.3-0.5,0.7-0.8,1.1-1.2
      c0.2-0.1,0.5-0.2,0.6-0.1C95.1,96.9,95.2,97.2,95.4,97.4 M3.6,65.4c2.7-0.5,5.5-0.9,8.2-1.6c2.5-0.6,5-1.6,7.4-2.5l2.2-0.8
      c2.3-0.5,3.5-2,4-4c0.3-1,0.4-1.8,0.9-2.8l0.3,0.9c0.1,3.3-1.2,6.8-5,7.3c-1.8,0.3-3.5,1.5-5.2,2.1c-3.7,1.4-7.7,2.2-11.7,2.2
      c-0.4,0-0.9-0.3-1.3-0.5L3.6,65.4 M45.1,135.6c-1.2,0-1.8-1-1.9-2c-0.3-2.4-0.7-4.8-0.5-7.2c0.1-3.2,0.8-6.5,1.3-9.8
      c0-0.5,0.3-1,0.4-1.6c1,0.2,1.1,0.7,1,1.5l-1,9.7c-0.4,3.1-0.2,6.2,0.8,9.2L45.1,135.6 M117.8,73.7c-2.6,1.6-4.3,4-5.6,6.8
      c-0.3,0.7-0.8,1.2-1.4,1.7l-6.8,5.4c-0.6-0.3-0.2-0.8,0.2-1.2l5.2-5c0.7-0.6,1.3-1.3,1.7-2.1c1-2.3,2.4-4.3,4.3-5.8
      C116.6,72.6,117.1,72.6,117.8,73.7 M144.6,73.6l-0.3,0.3l-10.4,5.7c-0.7,0.3-1.2,0.1-1.5-0.8l2.1-1l8.8-4.7
      C143.9,72.8,144.3,72.7,144.6,73.6 M141,20v-1.2l1.6-6.7c0.5-2,1.7-3.3,3.6-4c0.6-0.4,1.4-0.6,2,0.2c-0.7,0.3-1.3,0.5-1.8,0.9
      c-1.5,1-2.6,2.6-3,4.4c-0.5,2.2-1.2,4.3-1.8,6.5h-0.5 M164.7,19.5c-1.4,0-2.2,1-3,1.8l-6.2,6c-0.4,0.4-0.9,1.1-1.3,0.4L161,20
      c0.6-0.6,1.3-1,2-1.4c0.7-0.3,1.3,0,1.7,0.8 M125.6,18.5c0-0.6-0.1-1.1,0-1.6l1.4-4.4c1-2.7,0.4-5.4,0-8.1
      c-0.3-1.9-0.2-3.1,0.8-4.4c0.1,0.4,0.4,0.8,0.3,0.9c-1,1.4-0.6,3-0.3,4.4c0.8,3.5,0.7,6.8-0.8,10.1c-0.5,1-0.7,2-1,3h-0.4
       M103.8,24.1c-0.2-0.3-0.6-0.5-0.7-0.9c-0.5-1.2-1-2.4-1.2-3.6c-0.3-2.1-1-4.1-2-6c-0.7-1.2-1-2.6-1.1-4c-0.1-0.5,0.3-1.2,0.7-1.7
      c0.1-0.2,0.7-0.2,1.1-0.1c-1.5,2-1.1,3.9,0,5.7c1.3,2.3,2.2,4.7,2.5,7.3c0.1,1.1,0.6,2.1,0.9,3.2L103.8,24.1 M85.2,18.4
      c-1.4,2.4-1,4.7,1,6.8l6.2,6.5l0.5,0.7v0.3l-1-0.6c-2-2.2-4.1-4.3-6.3-6.4c-1.5-1.5-2.7-3-2.3-5.4c0-0.7,0.3-1.3,0.7-2
      c0.2-0.2,0.7-0.2,1-0.3L85.2,18.4 M114.8,20.4c-0.2-0.3-0.5-0.7-0.5-1c-0.2-0.7-0.2-1.4-0.2-2c0-2.5-0.6-4.7-1.7-6.8
      c-1-1.8-1.9-3.6-1.7-5.6c0-0.7,0.3-1.4,0.6-2c0-0.2,0.4-0.2,0.7-0.3c0,0.3,0.2,0.6,0,0.8c-0.8,1.5-0.6,3-0.1,4.4
      c0.3,1,0.8,2,1.3,3c1.2,2.2,1.9,4.5,1.7,7v2.4L114.8,20.4 M68,133.7c-3.4-0.2-6.6-6-5.2-11c0.2,0.4,0.5,0.8,0.6,1.3l1,4.8
      c0.4,1.7,1.2,3.2,2.9,4l0.5,0.5L68,133.7 M135.2,91c0.3,0.7,0.8,1.1,0.8,1.6l0.2,9.9C134.7,101.7,133.9,94.5,135.2,91 M156.6,61.3
      c-0.4,1-0.7,1.8-1.2,2.6c-0.3,0.3-1,0.3-1.5,0.5v-1.2c0-0.8,0.2-1.5,0.6-2.2c0.2-0.5,0.8-0.8,1.2-1.2L156.6,61.3 M160,73
      c0.1,0.6,0.4,1.2,0.4,1.8v2.8c-0.1,0.3-0.5,0.6-0.8,0.8c-0.2-0.2-0.7-0.5-0.7-0.8c0-1.5,0.3-3,0.4-4.6L160,73 M93.8,83.2
      c0.9,0.5,1,1,0.4,1.6c-0.8,0.9-1.6,1.8-2.4,2.7l-0.7,0.1c0-0.3-0.1-0.7,0-0.8L93.8,83.2 M152.8,100.5l-5.1-1
      c-0.3-0.1-0.4-0.5-0.7-0.8l0.6-0.4l4.9,1.7L152.8,100.5 M26.5,123.4c-2-1-2.7-3-2-4.9c0.8,0.2,1.1,0.5,1,1.3c0,0.6,0,1.2,0.2,1.7
      C25.8,122.1,26.1,122.6,26.5,123.4 M98.4,114.7c-1.5-1.2-3-2.5-3-4.6l0.3-0.3L98.4,114.7 M132.6,69.1c-1.4-0.7-1.6-1.5-0.6-2.8
      C132.8,66.9,133,67.3,132.6,69.1 M142.4,71c-0.9-0.9-1.3-1.8-1.2-3C142.5,68.4,143,69.7,142.4,71 M132.9,13c1,1.5-0.7,2.6,0,4
      C131.8,16,131.8,14.6,132.9,13 M147.6,20l-2.2,2c-0.6-0.6-0.2-1,0.2-1.4c0.6-0.4,0.9-1.5,2-0.7 M97,25c-0.9-1-1.7-2.2-2.4-3.2
      l0.4-0.3l2.3,3.2L97,25 M162.3,30.2l-1.4,0.7c-0.2,0-0.5,0-0.6-0.2v-0.5C160.8,29.4,161.6,29.4,162.3,30.2 M162.8,59.6
      c1.1,0.5,0.8,1.3,0.5,2.3C162.2,61.2,162.8,60.3,162.8,59.6 M118.5,18l-0.2-2.1c1,0.4,1,0.4,0.6,2.1H118.5 M133.3,115
      c1,0.6,0.8,1.3,0.6,2c-1,4.6-3.8,8.6-7.8,11.2l-5.4,3.4c-0.8,0.5-1.3,0.2-1.6-0.5c3-2.2,6-4.3,8.8-6.6
      C130.8,122.1,131.9,118.5,133.3,115 M117.3,92.5c0,0.5,0.2,1,0,1.3c-2.2,4.4-5,8.4-8.2,12.1l-0.5,0.4c-0.1-0.5-0.3-1-0.1-1.2
      l7.7-12l0.6-0.6L117.3,92.5 M40.8,103.6c-0.9-0.4-0.7-0.9-0.3-1.4l6.9-10c0.9-1.2,1.6-2.5,2.4-3.8h0.4c0,0.6,0.2,1.3,0,1.8
      c-1.2,2.1-2.4,4.1-3.8,6L40.8,103.6 M105,48.1l-1.4,1.7c-0.1-0.4-0.4-0.8-0.3-1.1c0.2-0.4,0.6-0.8,1-1L105,48.1 M115.3,55.1
      l-1.3,1.4c-0.7-0.7-0.6-1.1,0.7-2L115.3,55.1 M126.4,42.2l0.2-1.9l1.7,1L126.4,42.2 M137,40l-1.1,0.9l-0.6-1
      c0-0.2,0.4-0.6,0.5-0.5C136.2,39.4,136.5,39.7,137,40 M123.1,56l0.7,0.9l-0.9,0.7C122.2,56.9,122.2,56.9,123.1,56 M151,51.4h-1.4
      c0-0.3,0.1-0.7,0.3-0.7h1.2v0.7 M138.4,52.6l-1.2,1l0.1-1.6l1.2,0.2v0.4 M161.5,44.8c-1-0.6-2,1-3-0.4
      C160.2,43.1,160.8,43.2,161.5,44.8 M118.4,25.2l-4,0.7l-0.7-0.3l0.1-0.5c0.6-0.8,3.7-1,4.4-0.3L118.4,25.2 M112.2,26.7
      c-1.2-0.2-2.1,1.5-3.4,0.2C110.3,25.9,111.6,25.7,112.2,26.7 M129.5,23.4c1,1.6-0.5,1.6-0.9,2.2c-0.7-1.1,0.5-1.4,1-2.2
       M119.4,25.6c0.7,0,1.6-1.2,2.2,0.3C120.8,26.3,120,26.6,119.4,25.6"/>
  </g>
</g>
</svg>
